<svg width="256" height="256" viewBox="0 0 256 256" fill="none" xmlns="http://www.w3.org/2000/svg">
<rect width="256" height="256" fill="white"/>
<path d="M202.667 32H53.3333C41.6 32 32 41.6 32 53.3333V202.667C32 214.4 41.6 224 53.3333 224H202.667C214.4 224 224 214.4 224 202.667V53.3333C224 41.6 214.4 32 202.667 32ZM202.667 202.667H53.3333V53.3333H202.667V202.667Z" fill="black"/>
<path d="M120 82.3467H66.6667V98.3467H120V82.3467Z" fill="black"/>
<path d="M192 168H138.667V184H192V168Z" fill="black"/>
<path d="M192 141.333H138.667V157.333H192V141.333Z" fill="black"/>
<path d="M85.3333 192H101.333V170.667H122.667V154.667H101.333V133.333H85.3333V154.667H64V170.667H85.3333V192Z" fill="black"/>
<path d="M150.293 116.8L165.333 101.76L180.373 116.8L191.68 105.493L176.64 90.3467L191.68 75.3067L180.373 64L165.333 79.04L150.293 64L138.987 75.3067L154.027 90.3467L138.987 105.493L150.293 116.8Z" fill="black"/>
</svg>
